<svg xmlns="http://www.w3.org/2000/svg" xmlns:xlink="http://www.w3.org/1999/xlink" viewBox="0 0 258.29 258.29"><defs><style>.cls-1{fill:url(#Безымянный_градиент_7);}.cls-2{fill:url(#Безымянный_градиент_7-2);}.cls-3{fill:url(#Безымянный_градиент_7-3);}.cls-4{fill:url(#Безымянный_градиент_7-4);}.cls-5{fill:url(#Безымянный_градиент_2);}</style><linearGradient id="Безымянный_градиент_7" x1="128.49" y1="2064.87" x2="130.01" y2="2043.14" gradientTransform="matrix(1, 0, 0, -1, 0, 2069.94)" gradientUnits="userSpaceOnUse"><stop offset="0.01" stop-color="#f7931e"/><stop offset="0.03" stop-color="#f7971e"/><stop offset="0.2" stop-color="#f9b61f"/><stop offset="0.38" stop-color="#facf20"/><stop offset="0.56" stop-color="#fbe021"/><stop offset="0.76" stop-color="#fceb21"/><stop offset="1" stop-color="#fcee21"/></linearGradient><linearGradient id="Безымянный_градиент_7-2" x1="128.37" y1="2064.86" x2="129.89" y2="2043.13" xlink:href="#Безымянный_градиент_7"/><linearGradient id="Безымянный_градиент_7-3" x1="128.73" y1="2064.88" x2="130.25" y2="2043.15" xlink:href="#Безымянный_градиент_7"/><linearGradient id="Безымянный_градиент_7-4" x1="129.09" y1="2064.91" x2="130.6" y2="2043.18" xlink:href="#Безымянный_градиент_7"/><radialGradient id="Безымянный_градиент_2" cx="129.15" cy="129.15" r="129.15" gradientUnits="userSpaceOnUse"><stop offset="0.88"/><stop offset="0.93" stop-color="#0b0c0e"/><stop offset="1" stop-color="#1f2126"/></radialGradient></defs><g id="Слой_2" data-name="Слой 2"><g id="Слой_7" data-name="Слой 7"><g id="backBiz1"><path class="cls-1" d="M119.18,15.32l-.7-.87h21.33l-.7.87Z"/><path class="cls-2" d="M138.42,16.18l-.81,1-8.46,10.45-8.07-10c-.4-.5-.8-1-1.21-1.49Z"/><path class="cls-3" d="M142.6,11c-.47.57-.93,1.15-1.39,1.72H117.08L115.69,11Z"/><path class="cls-4" d="M113.6,8.43l-2.09-2.59h35.27l-2.09,2.59Z"/><path id="backBiz" class="cls-5" d="M129.15,0A129.15,129.15,0,1,0,258.29,129.15,129.15,129.15,0,0,0,129.15,0Zm0,251.83A122.69,122.69,0,1,1,251.83,129.15,122.69,122.69,0,0,1,129.15,251.83Z"/></g></g></g></svg>