<svg xmlns="http://www.w3.org/2000/svg" viewBox="0 0 300 300"><defs><style>.cls-1,.cls-2{fill:#f6b93b;}.cls-2{opacity:0.01;}</style></defs><g id="Слой_2" data-name="Слой 2"><g id="Слой_4" data-name="Слой 4"><path class="cls-1" d="M65.59,57.81a126.39,126.39,0,0,1,10-8.27L70,41.25a135.65,135.65,0,0,0-11.5,9.49Z"/><path class="cls-1" d="M48.9,76.49a126,126,0,0,1,8.91-10.9l-7.07-7.08A135.17,135.17,0,0,0,40.55,71Z"/><path class="cls-1" d="M84.72,43.38a127.15,127.15,0,0,1,12.4-6.67l-3.83-9.25a134.58,134.58,0,0,0-14.16,7.63Z"/><path class="cls-1" d="M26.52,169.51a124.23,124.23,0,0,1-1.39-14h-10a136.26,136.26,0,0,0,1.59,16Z"/><path class="cls-1" d="M107.28,32.49a126.67,126.67,0,0,1,12.43-3.79l-2-9.8a134.28,134.28,0,0,0-14.26,4.34Z"/><path class="cls-1" d="M28.45,120.77a124.9,124.9,0,0,1,4-13.49l-9.25-3.83a133,133,0,0,0-4.62,15.41Z"/><path class="cls-1" d="M25.13,144.5a125,125,0,0,1,1.23-12.93l-9.83-1.91a134.11,134.11,0,0,0-1.41,14.84Z"/><path class="cls-1" d="M36.71,97.12a124.54,124.54,0,0,1,6.11-11.47l-8.35-5.52a134.56,134.56,0,0,0-7,13.16Z"/><path class="cls-1" d="M223.51,48.9a126,126,0,0,1,10.9,8.91l7.08-7.07A135.17,135.17,0,0,0,229,40.55Z"/><path class="cls-1" d="M242.19,65.59a126.39,126.39,0,0,1,8.27,10l8.29-5.6a135.65,135.65,0,0,0-9.49-11.5Z"/><path class="cls-1" d="M256.62,84.72a127.15,127.15,0,0,1,6.67,12.4l9.25-3.83a134.58,134.58,0,0,0-7.63-14.16Z"/><path class="cls-1" d="M276.76,103.45l-9.25,3.83a126.67,126.67,0,0,1,3.79,12.43l9.8-2A134.28,134.28,0,0,0,276.76,103.45Z"/><path class="cls-1" d="M179.23,28.45a124.9,124.9,0,0,1,13.49,4l3.83-9.25a133,133,0,0,0-15.41-4.62Z"/><path class="cls-1" d="M155.5,25.13a125,125,0,0,1,12.93,1.23l1.91-9.83a134.11,134.11,0,0,0-14.84-1.41Z"/><path class="cls-1" d="M130.49,26.52a124.23,124.23,0,0,1,14-1.39v-10a136.26,136.26,0,0,0-16,1.59Z"/><path class="cls-1" d="M202.88,36.71a124.54,124.54,0,0,1,11.47,6.11l5.52-8.35a134.56,134.56,0,0,0-13.16-7Z"/><path class="cls-1" d="M32.49,192.72a126.67,126.67,0,0,1-3.79-12.43l-9.8,2a134.28,134.28,0,0,0,4.34,14.26Z"/><path class="cls-1" d="M251.1,223.51a126,126,0,0,1-8.91,10.9l7.07,7.08A135.17,135.17,0,0,0,259.45,229Z"/><path class="cls-1" d="M263.29,202.88a124.54,124.54,0,0,1-6.11,11.47l8.35,5.52a134.56,134.56,0,0,0,7-13.16Z"/><path class="cls-1" d="M234.41,242.19a126.39,126.39,0,0,1-10,8.27l5.6,8.29a135.65,135.65,0,0,0,11.5-9.49Z"/><path class="cls-1" d="M271.55,179.23a124.9,124.9,0,0,1-4,13.49l9.25,3.83a133,133,0,0,0,4.62-15.41Z"/><path class="cls-1" d="M273.48,130.49a124.23,124.23,0,0,1,1.39,14h10a136.26,136.26,0,0,0-1.59-16Z"/><path class="cls-1" d="M215.28,256.62a127.15,127.15,0,0,1-12.4,6.67l3.83,9.25a134.58,134.58,0,0,0,14.16-7.63Z"/><path class="cls-1" d="M274.87,155.5a125,125,0,0,1-1.23,12.93l9.83,1.91a134.11,134.11,0,0,0,1.41-14.84Z"/><path class="cls-1" d="M76.49,251.1a126,126,0,0,1-10.9-8.91l-7.08,7.07A135.17,135.17,0,0,0,71,259.45Z"/><path class="cls-1" d="M97.12,263.29a124.54,124.54,0,0,1-11.47-6.11l-5.52,8.35a134.56,134.56,0,0,0,13.16,7Z"/><path class="cls-1" d="M43.38,215.28a127.15,127.15,0,0,1-6.67-12.4l-9.25,3.83a134.58,134.58,0,0,0,7.63,14.16Z"/><path class="cls-1" d="M57.81,234.41a126.39,126.39,0,0,1-8.27-10L41.25,230a135.65,135.65,0,0,0,9.49,11.5Z"/><path class="cls-1" d="M120.77,271.55a124.9,124.9,0,0,1-13.49-4l-3.83,9.25a133,133,0,0,0,15.41,4.62Z"/><path class="cls-1" d="M169.51,273.48a124.23,124.23,0,0,1-14,1.39v10a136.26,136.26,0,0,0,16-1.59Z"/><path class="cls-1" d="M192.72,267.51a126.67,126.67,0,0,1-12.43,3.79l2,9.8a134.28,134.28,0,0,0,14.26-4.34Z"/><path class="cls-1" d="M144.5,274.87a125,125,0,0,1-12.93-1.23l-1.91,9.83a134.11,134.11,0,0,0,14.84,1.41Z"/><circle class="cls-2" cx="150" cy="150" r="150"/></g></g></svg>