<svg xmlns="http://www.w3.org/2000/svg" xmlns:xlink="http://www.w3.org/1999/xlink" viewBox="0 0 300 300"><defs><style>.cls-1{fill:#fff;opacity:0.01;}.cls-2{fill:#4b4b4b;filter:url(#filter);}.cls-3,.cls-4{fill:#3d3d3d;}.cls-4{font-size:29px;font-family:LilitaOne, Lilita One;letter-spacing:0.09em;}</style><filter id="filter" x="33.87" y="33.94" width="233" height="233" filterUnits="userSpaceOnUse"><feOffset input="SourceAlpha"/><feGaussianBlur stdDeviation="7" result="blur"/><feFlood/><feComposite operator="in" in2="blur"/><feComposite in="SourceGraphic"/></filter></defs><g id="Слой_2" data-name="Слой 2"><g id="Слой_6" data-name="Слой 6"><g id="frontBiz_"><g id="frontBiz"><circle class="cls-1" cx="150" cy="150" r="150"/><circle class="cls-2" cx="150" cy="150" r="95"/><path class="cls-3" d="M197.11,149.87c-1.85-.88-2-1.1-2.68-3.82-.44-1.58-1.1-4-1.53-5.31a31.63,31.63,0,0,1-1.1-4.56c-.17-1.42-.37-1.92-.62-1.63a2.58,2.58,0,0,0-1-1.24c0-.27-.13-.42-.45-.38s-.62-.39-.71-1.49c-.08-.88-.43-1.71-.79-1.84-.74-.27-1.93.13-1.93.66,0,.21-.57.26-1.31.13a2.6,2.6,0,0,0-1.93.22c-.48.39-1.71.26-5.4-.57-9.52-2.24-10.4-2.42-11.19-2-.52.27-2.1.13-4.78-.48-2.24-.48-5-1-6.27-1.14A14.29,14.29,0,0,1,153,126c-.17-.08-2.72-.7-5.75-1.31s-5.83-1.19-6.31-1.32c-5.31-1.1-14.22-2.94-14.92-3.11-.48-.14-3.16-.62-5.92-1.1-6.85-1.19-7.55-1.45-10.1-4-.28-.28-.55-.52-.81-.75a2,2,0,0,0-.73-.58c-1.18-.87-2-1-2.54-.51a1.05,1.05,0,0,0-.23.46l-1.17,2a2.14,2.14,0,0,1-.39-.21c-1.28-1.14-2.72.92-2.94,4.21-.31,4.56-.09,10.36.39,10.84a1.82,1.82,0,0,1,.53,1.1,17,17,0,0,0,.87,2.89l.88,2.33,4.26.74c2.37.4,5.13.84,6.18,1,1.76.22,1.89.35,1.67,1.27-.35,1.32.18,1.63,2.94,1.76a14,14,0,0,1,2.94.35,26.89,26.89,0,0,0,3.07.53c1.32.13,3.2.35,4.17.48s2.54.31,3.51.39c2.19.27,9.61,1.36,13.38,2,1.58.22,3.73.57,4.83.74,2.28.31,3,1.1,3.07,3a2.88,2.88,0,0,0,.7,2c.61.49.7,1.23.48,4.17l-.22,3.6,3.38.48c1.84.22,5.13.57,7.28.75a19.8,19.8,0,0,1,4.25.62,14.15,14.15,0,0,1,1.65,2.24,15.54,15.54,0,0,1,1.15,2.29l0,0a7.72,7.72,0,0,0,0,1.12c.09,2-.06,4.11,0,6.16.26,6.54.21,9.77,0,10.84a5,5,0,0,0-.11,1.5,1.43,1.43,0,0,0,0,.82c-.38.06-.57.18-.45.31s4.56.44,9.74.57c7.11.17,9.39.09,9.39-.31,0-.11-.14-.24-.37-.36l.1,0a3.27,3.27,0,0,0,.89-.61H192v-.37a.45.45,0,0,0,0-.16s0,0,0,0l0-2.21c0-3.91-.3-6.14-3-21.15a17.65,17.65,0,0,1,0-4.82c.22-1.85,1.19-3.43,1.1-4-.09-1.09,2.54-1.71,4.6-1.09C198.86,152.89,200.62,151.58,197.11,149.87Zm-29.35,8.07c-.93,1.14-1.06,1.14-4.57.92s-3.59-.31-4.12-1.53a7.68,7.68,0,0,1,1.4-7.33c1.71-2,1.71-2,3.95-1.32,1.14.35,1.71.84,1.93,1.58a9.8,9.8,0,0,1-1.18,5.92c-.75,1.58-.75,1.67,0,1.67a5.8,5.8,0,0,0,2.24-.88C169,156,169.12,156.27,167.76,157.94Z"/></g><text class="cls-4" id="text_coef" transform="translate(105.25 186.94)">31%</text></g></g></g></svg>