<svg xmlns="http://www.w3.org/2000/svg" xmlns:xlink="http://www.w3.org/1999/xlink" viewBox="0 0 300 300"><defs><style>.cls-1{fill:#fff;opacity:0.01;}.cls-2{fill:#3d3d3d;}.cls-3{fill:url(#Безымянный_градиент_29);}</style><radialGradient id="Безымянный_градиент_29" cx="150" cy="150" r="140" gradientUnits="userSpaceOnUse"><stop offset="0.85" stop-color="#7a7575"/><stop offset="0.92" stop-color="#787373"/><stop offset="0.95" stop-color="#716d6d"/><stop offset="0.97" stop-color="#666262"/><stop offset="0.98" stop-color="#555252"/><stop offset="0.99" stop-color="#3f3e3e"/><stop offset="1" stop-color="#333"/></radialGradient></defs><g id="Слой_2" data-name="Слой 2"><g id="Слой_6" data-name="Слой 6"><g id="middleBiz"><circle class="cls-1" cx="150" cy="150" r="150"/><path class="cls-2" d="M150,10A140,140,0,1,0,290,150,140,140,0,0,0,150,10Zm120.66,97.6-32,13.24a92.32,92.32,0,0,0-5.36-12.93l32-13.25c-.23-.48-.47-1-.71-1.43a125.88,125.88,0,0,1,6.93,16.92C271.24,109.29,271,108.44,270.66,107.6Zm.93,2.74q.39,1.18.75,2.4Q272,111.53,271.59,110.34Zm.92,3c.21.7.42,1.41.62,2.11C272.93,114.71,272.72,114,272.51,113.3Zm.9,3.17c.16.58.32,1.16.47,1.75C273.73,117.63,273.57,117.05,273.41,116.47Zm.47,1.75A127.13,127.13,0,0,1,277.67,143q-.3-5.58-1.08-11l-33.94,6.75A91.76,91.76,0,0,0,239.93,125Zm-40.56,73.87a92.32,92.32,0,0,0,5.36-12.93l32,13.24a126.62,126.62,0,0,1-5.36,12.94Zm32,13.25-.7,1.42ZM264,207.92c-.34.66-.69,1.31-1,2C263.34,209.23,263.69,208.58,264,207.92Zm-1.29,2.45c-.41.77-.83,1.52-1.26,2.28Q262.13,211.51,262.74,210.37Zm-1.31,2.38c-.45.79-.91,1.58-1.37,2.37C260.52,214.33,261,213.54,261.43,212.75Zm-1.37,2.37a128.77,128.77,0,0,1-7.79,11.63L223.5,207.53a93.24,93.24,0,0,0,7.78-11.64ZM239.93,175a91.76,91.76,0,0,0,2.72-13.74L276.59,168q.78-5.44,1.08-11a127.13,127.13,0,0,1-3.79,24.77Zm33.95,6.75c-.15.59-.31,1.17-.47,1.76C273.57,183,273.73,182.37,273.88,181.78Zm-.75,2.81c-.2.7-.41,1.4-.62,2.1C272.72,186,272.93,185.29,273.13,184.59Zm-.79,2.68c-.24.8-.49,1.59-.75,2.39C271.85,188.86,272.1,188.07,272.34,187.27Zm-.82,2.58c-.28.86-.56,1.7-.86,2.55C271,191.55,271.24,190.71,271.52,189.85ZM243.07,157c.17-2.31.26-4.65.26-7s-.09-4.69-.26-7h34.6q.19,3.48.2,7t-.2,7Zm21-64.91c-.34-.67-.69-1.33-1-2C263.34,90.76,263.69,91.42,264,92.09Zm-1.29-2.46q-.62-1.16-1.26-2.28Q262.13,88.48,262.74,89.63Zm-1.31-2.38c-.45-.79-.91-1.58-1.37-2.37C260.52,85.67,261,86.46,261.43,87.25Zm-1.37-2.37-28.78,19.23a93.24,93.24,0,0,0-7.78-11.64l28.77-19.22q-3.33-4.44-7-8.57A128.76,128.76,0,0,1,260.06,84.88ZM245.23,64.67,220.76,89.14a94.42,94.42,0,0,0-9.9-9.9l24.47-24.47A132.1,132.1,0,0,1,245.23,64.67Zm-83.94,178A91.76,91.76,0,0,0,175,239.93l6.75,33.95A127.11,127.11,0,0,1,157,277.67q5.59-.3,11-1.08ZM175,60.07a91.76,91.76,0,0,0-13.74-2.72L168,23.41q-5.44-.78-11-1.08a127.11,127.11,0,0,1,24.78,3.79Zm6.75-33.95,1.76.47Zm2.81.75,2.11.62Zm2.68.79c.8.24,1.6.49,2.39.75C188.87,28.15,188.07,27.9,187.27,27.66Zm2.58.82c.86.28,1.7.56,2.55.86C191.55,29,190.71,28.76,189.85,28.48Zm2.55.86a126.5,126.5,0,0,1,14.37,6.07l-1.43-.71-13.25,32a92.32,92.32,0,0,0-12.93-5.36ZM179.16,238.68a92.32,92.32,0,0,0,12.93-5.36l13.25,32a126.62,126.62,0,0,1-12.94,5.36Zm13.24,32c-.85.3-1.69.58-2.55.86C190.71,271.24,191.55,271,192.4,270.66Zm-2.74.93c-.8.26-1.59.51-2.39.75C188.07,272.1,188.86,271.85,189.66,271.59Zm-3,.92-2.1.62Zm-3.16.9-1.75.47Zm12.36-42.13a93.24,93.24,0,0,0,11.64-7.78l19.22,28.77a128.77,128.77,0,0,1-11.63,7.79Zm19.23,28.78-2.37,1.37Zm-2.47,1.42-2.28,1.26ZM209.89,263l-2,1Zm-3.13,1.61-1.42.7Zm.77-188.1a93.24,93.24,0,0,0-11.64-7.78l19.23-28.78a128.77,128.77,0,0,1,11.63,7.79ZM207.91,36c.67.34,1.32.69,2,1C209.23,36.66,208.58,36.31,207.91,36Zm2.46,1.29c.77.41,1.52.83,2.28,1.26Zm2.38,1.31,2.37,1.37Zm14,9.16c3,2.22,5.81,4.58,8.56,7C232.57,52.31,229.72,50,226.76,47.73ZM157,22.33v34.6c-2.31-.17-4.65-.26-7-.26s-4.69.09-7,.26V22.33q3.48-.2,7-.2T157,22.33ZM104.11,68.72A93.24,93.24,0,0,0,92.47,76.5L73.25,47.73a128.77,128.77,0,0,1,11.63-7.79ZM84.88,39.94l2.37-1.37Zm2.47-1.42,2.28-1.26ZM90.11,37c.65-.35,1.31-.7,2-1C91.42,36.31,90.76,36.66,90.11,37Zm3.11-1.6a126.55,126.55,0,0,1,16.93-6.93c-.85.28-1.71.56-2.55.86l13.24,32a92.32,92.32,0,0,0-12.93,5.36l-13.25-32ZM92.47,223.5a93.24,93.24,0,0,0,11.64,7.78L84.88,260.06a128.77,128.77,0,0,1-11.63-7.79Zm2.19,41.8,13.25-32a92.32,92.32,0,0,0,12.93,5.36l-13.24,32a128.5,128.5,0,0,1-14.38-6.07ZM92.09,264c-.67-.34-1.33-.69-2-1C90.76,263.34,91.42,263.69,92.09,264Zm-2.46-1.29-2.28-1.26Zm-2.38-1.31-2.37-1.37ZM125,239.93a91.76,91.76,0,0,0,13.74,2.72L132,276.59a126.9,126.9,0,0,1-13.74-2.71Zm-6.75,33.95-1.75-.46Zm-2.81-.75-2.11-.62Zm-2.68-.79c-.8-.24-1.6-.49-2.39-.75C111.13,271.85,111.93,272.1,112.73,272.34Zm-2.58-.82c-.86-.28-1.71-.56-2.55-.86C108.44,271,109.29,271.24,110.15,271.52ZM143,277.67q-5.58-.3-11-1.08Q137.41,277.37,143,277.67ZM125,60.07l-6.75-33.95A126.9,126.9,0,0,1,132,23.41l6.75,33.94A91.76,91.76,0,0,0,125,60.07ZM110.34,28.41q1.18-.39,2.4-.75Q111.53,28,110.34,28.41Zm3-.92,2.11-.62Zm3.16-.9,1.76-.47ZM132,23.41q5.44-.78,11-1.08Q137.41,22.63,132,23.41ZM73.24,47.73c-3,2.22-5.81,4.58-8.57,7C67.43,52.31,70.28,50,73.24,47.73Zm-8.57,7L89.14,79.24a94.42,94.42,0,0,0-9.9,9.9L54.77,64.67A132.1,132.1,0,0,1,64.67,54.77ZM60.07,125a91.76,91.76,0,0,0-2.72,13.74L23.41,132a126.9,126.9,0,0,1,2.71-13.74Zm-33.95-6.75c.15-.59.31-1.17.47-1.75C26.43,117.05,26.27,117.63,26.12,118.22Zm.75-2.81c.2-.7.41-1.41.62-2.11C27.28,114,27.07,114.71,26.87,115.41Zm.79-2.67q.36-1.21.75-2.4Q28,111.53,27.66,112.74Zm.82-2.59a126.55,126.55,0,0,1,6.93-16.93c-.24.48-.48,1-.71,1.44l32,13.25a92.32,92.32,0,0,0-5.36,12.93l-32-13.24C29,108.44,28.76,109.29,28.48,110.15ZM60.07,175l-33.95,6.75A127.13,127.13,0,0,1,22.33,157q.3,5.58,1.08,11l33.94-6.75A91.76,91.76,0,0,0,60.07,175Zm1.25,4.13a92.32,92.32,0,0,0,5.36,12.93l-32,13.25a126.62,126.62,0,0,1-5.36-12.94Zm-32,13.24c-.3-.85-.58-1.69-.86-2.55C28.76,190.71,29,191.55,29.34,192.4Zm-.93-2.74c-.26-.8-.51-1.59-.75-2.39C27.9,188.07,28.15,188.86,28.41,189.66Zm-.92-3c-.21-.7-.42-1.4-.62-2.1C27.07,185.29,27.28,186,27.49,186.69Zm-.9-3.15c-.16-.59-.32-1.17-.47-1.76C26.27,182.37,26.43,183,26.59,183.54Zm42.13,12.35a93.24,93.24,0,0,0,7.78,11.64L47.73,226.75a128.77,128.77,0,0,1-7.79-11.63ZM39.94,215.12c-.46-.79-.92-1.58-1.37-2.37C39,213.54,39.48,214.33,39.94,215.12Zm-1.42-2.47q-.65-1.14-1.26-2.28Q37.88,211.51,38.52,212.65ZM37,209.89c-.35-.65-.7-1.31-1-2C36.31,208.58,36.66,209.24,37,209.89Zm-1.61-3.12c-.23-.48-.47-1-.7-1.43C34.93,205.82,35.17,206.29,35.4,206.77ZM68.72,104.11,39.94,84.88a128.77,128.77,0,0,1,7.79-11.63L76.5,92.47A93.24,93.24,0,0,0,68.72,104.11ZM36,92.09c.34-.67.69-1.33,1-2C36.66,90.76,36.31,91.42,36,92.09Zm1.29-2.46q.62-1.14,1.26-2.28Q37.88,88.49,37.26,89.63Zm1.31-2.38c.45-.79.91-1.58,1.37-2.37C39.48,85.67,39,86.46,38.57,87.25Zm16.2-22.57c-2.46,2.75-4.82,5.61-7,8.56C50,70.29,52.31,67.43,54.77,64.68ZM23.41,132q-.78,5.44-1.08,11Q22.63,137.41,23.41,132Zm-1.08,11h34.6c-.17,2.31-.26,4.65-.26,7s.09,4.69.26,7H22.33q-.2-3.48-.2-7T22.33,143Zm25.4,83.75q3.33,4.44,7,8.57C52.31,232.57,50,229.71,47.73,226.75Zm7,8.58,24.47-24.47a94.42,94.42,0,0,0,9.9,9.9L64.67,245.23A132.1,132.1,0,0,1,54.77,235.33Zm18.47,16.94q-4.42-3.33-8.56-7Q68.81,248.94,73.24,252.27ZM143,277.67v-34.6c2.31.17,4.65.26,7,.26s4.69-.09,7-.26v34.6q-3.48.19-7,.2T143,277.67Zm83.76-25.4c3-2.22,5.81-4.58,8.56-7C232.57,247.69,229.72,250.05,226.76,252.27Zm8.57-7-24.47-24.47a94.42,94.42,0,0,0,9.9-9.9l24.47,24.47A132.1,132.1,0,0,1,235.33,245.23Zm9.9-9.91q3.71-4.12,7-8.56Q248.94,231.19,245.23,235.32Z"/><path class="cls-3" d="M150,10A140,140,0,1,0,290,150,140,140,0,0,0,150,10Zm0,267.5A127.5,127.5,0,1,1,277.5,150,127.5,127.5,0,0,1,150,277.5Z"/></g></g></g></svg>