<svg xmlns="http://www.w3.org/2000/svg" xmlns:xlink="http://www.w3.org/1999/xlink" viewBox="0 0 258.29 258.29"><defs><style>.cls-1{fill:#fff;opacity:0.01;}.cls-2{fill:#3d3d3d;}.cls-3{fill:url(#Безымянный_градиент_5);}</style><radialGradient id="Безымянный_градиент_5" cx="129.15" cy="129.15" r="120.54" gradientUnits="userSpaceOnUse"><stop offset="0.85" stop-color="#1f2126"/><stop offset="0.94" stop-color="#212327"/><stop offset="0.98" stop-color="#28292c"/><stop offset="1" stop-color="#333"/></radialGradient></defs><g id="Слой_2" data-name="Слой 2"><g id="Слой_7" data-name="Слой 7"><g id="middleBiz1"><circle class="cls-1" cx="129.15" cy="129.15" r="129.15"/><path class="cls-2" d="M129.15,8.61A120.54,120.54,0,1,0,249.68,129.15,120.54,120.54,0,0,0,129.15,8.61ZM233,92.64,205.5,104a79.48,79.48,0,0,0-4.62-11.13L228.42,81.5l-.61-1.23a108.43,108.43,0,0,1,6,14.56C233.53,94.1,233.28,93.37,233,92.64Zm.8,2.36c.22.68.44,1.37.65,2.06C234.27,96.37,234.05,95.68,233.83,95Zm.79,2.55.54,1.82C235,98.76,234.81,98.15,234.62,97.55Zm.78,2.72c.14.51.28,1,.41,1.51C235.68,101.28,235.54,100.78,235.4,100.27Zm.41,1.51a111,111,0,0,1,3.26,21.33q-.27-4.8-.93-9.5l-29.22,5.81a80.78,80.78,0,0,0-2.34-11.82Zm-34.93,63.6a79.48,79.48,0,0,0,4.62-11.13L233,165.65a111,111,0,0,1-4.61,11.14Zm27.54,11.41c-.2.41-.41.81-.61,1.22C228,177.6,228.22,177.2,228.42,176.79Zm-1.1,2.22c-.29.57-.59,1.13-.89,1.7C226.73,180.14,227,179.58,227.32,179Zm-1.11,2.11c-.35.66-.72,1.31-1.08,2C225.5,182.43,225.86,181.78,226.21,181.12Zm-1.13,2c-.39.68-.78,1.36-1.18,2C224.3,184.53,224.69,183.85,225.08,183.17Zm-1.18,2a111.29,111.29,0,0,1-6.7,10l-24.78-16.55a80.65,80.65,0,0,0,6.71-10Zm-17.32-34.52a80.78,80.78,0,0,0,2.34-11.82l29.22,5.81q.66-4.69.93-9.5a111,111,0,0,1-3.26,21.33Zm29.23,5.82c-.13.5-.27,1-.41,1.51C235.54,157.52,235.68,157,235.81,156.51Zm-.65,2.41c-.17.61-.35,1.21-.53,1.82Zm-.68,2.31c-.21.69-.43,1.38-.65,2.06C234.05,162.61,234.27,161.92,234.48,161.23Zm-.71,2.23c-.24.73-.49,1.46-.74,2.19C233.28,164.92,233.53,164.19,233.77,163.46Zm-24.49-28.29q.22-3,.22-6t-.22-6h29.79q.17,3,.16,6t-.16,6Zm18-55.89c-.29-.57-.59-1.14-.89-1.7C226.73,78.15,227,78.71,227.32,79.28Zm-1.11-2.11c-.35-.66-.72-1.32-1.08-2C225.49,75.85,225.86,76.51,226.21,77.17Zm-1.13-2c-.39-.68-.78-1.36-1.18-2C224.3,73.76,224.69,74.44,225.08,75.12Zm-1.18-2L199.13,89.63a80.65,80.65,0,0,0-6.71-10L217.2,63.06q-2.88-3.83-6.07-7.37A110.34,110.34,0,0,1,223.9,73.08Zm-12.77-17.4L190.07,76.75a81.78,81.78,0,0,0-8.53-8.53l21.07-21.06A110.47,110.47,0,0,1,211.13,55.68ZM138.87,208.92a80.78,80.78,0,0,0,11.82-2.34l5.82,29.23a111,111,0,0,1-21.33,3.26q4.8-.27,9.5-.93ZM150.69,51.71a79.47,79.47,0,0,0-11.82-2.33l5.81-29.23q-4.69-.66-9.5-.93a111,111,0,0,1,21.33,3.26Zm5.82-29.23,1.51.41Zm2.41.65,1.82.54C160.14,23.48,159.53,23.31,158.92,23.13Zm2.31.68,2.06.65Zm2.23.71,2.19.74Zm2.19.74A110.7,110.7,0,0,1,178,30.48l-1.23-.61L165.38,57.41a79.48,79.48,0,0,0-11.13-4.62ZM154.25,205.5a79.48,79.48,0,0,0,11.13-4.62l11.41,27.54A111,111,0,0,1,165.65,233ZM165.65,233l-2.19.74Zm-2.36.8-2.06.65Zm-2.55.8-1.82.53Zm-2.73.77-1.5.41Zm10.65-36.27a80.65,80.65,0,0,0,10-6.71l16.55,24.78a111.29,111.29,0,0,1-10,6.7Zm16.55,24.77-2,1.18Zm-2.13,1.23c-.65.37-1.3.73-2,1.08C181.78,225.86,182.43,225.5,183.08,225.13Zm-2.37,1.3-1.7.89Zm-2.7,1.38-1.22.61Zm.67-161.94a80.65,80.65,0,0,0-10-6.71l16.55-24.77a111.29,111.29,0,0,1,10,6.7ZM179,31l1.7.89Zm2.11,1.11c.66.35,1.31.72,2,1.08C182.43,32.79,181.78,32.43,181.12,32.08Zm2,1.13,2,1.18Zm12.06,7.88q3.83,2.88,7.38,6.07Q199.06,44,195.23,41.09ZM135.17,19.22V49c-2-.14-4-.22-6-.22s-4,.08-6,.22V19.22q3-.16,6-.16T135.17,19.22ZM89.63,59.16a80.65,80.65,0,0,0-10,6.71L63.06,41.09a111.29,111.29,0,0,1,10-6.7ZM73.08,34.39l2-1.18Zm2.13-1.23c.65-.36,1.3-.73,2-1.08C76.51,32.43,75.86,32.79,75.21,33.16Zm2.37-1.3,1.7-.89Zm2.68-1.37a107.84,107.84,0,0,1,14.57-6l-2.19.74L104,52.79a79.48,79.48,0,0,0-11.13,4.62L81.5,29.87Zm-.65,161.93a80.65,80.65,0,0,0,10,6.71L73.08,223.9a111.29,111.29,0,0,1-10-6.7Zm1.89,36,11.41-27.54A79.48,79.48,0,0,0,104,205.5L92.64,233a109.06,109.06,0,0,1-12.38-5.23Zm-2.22-1.1-1.7-.89Zm-2.11-1.11c-.66-.35-1.31-.71-2-1.08C75.86,225.5,76.51,225.86,77.17,226.21Zm-2-1.13-2-1.18Zm32.48-18.5a80.78,80.78,0,0,0,11.82,2.34l-5.81,29.22a113,113,0,0,1-11.83-2.33Zm-5.82,29.23-1.5-.41Zm-2.41-.65c-.61-.18-1.22-.35-1.82-.54C98.15,234.81,98.76,235,99.37,235.16Zm-2.31-.68L95,233.83Zm-2.23-.71L92.64,233Zm28.28,5.3q-4.8-.27-9.5-.93Q118.31,238.8,123.11,239.07ZM107.6,51.71l-5.82-29.23a113,113,0,0,1,11.83-2.33l5.81,29.23A79.47,79.47,0,0,0,107.6,51.71ZM95,24.46l2.06-.65Zm2.55-.79,1.82-.54Zm2.72-.78c.51-.14,1-.28,1.51-.4C101.28,22.61,100.78,22.75,100.27,22.89Zm13.34-2.74q4.69-.66,9.5-.93Q118.31,19.49,113.61,20.15ZM63.06,41.09Q59.24,44,55.68,47.16,59.24,44,63.06,41.09Zm-7.38,6.07L76.75,68.22a81.78,81.78,0,0,0-8.53,8.53L47.16,55.68A110.47,110.47,0,0,1,55.68,47.16Zm-4,60.44a79.47,79.47,0,0,0-2.33,11.82l-29.23-5.81a112.45,112.45,0,0,1,2.33-11.83Zm-29.22-5.82c.12-.5.26-1,.4-1.51C22.75,100.78,22.61,101.28,22.49,101.78Zm.65-2.41c.17-.61.35-1.22.53-1.82C23.48,98.15,23.31,98.76,23.14,99.37Zm.67-2.31c.21-.69.43-1.38.65-2.06C24.24,95.68,24,96.37,23.81,97.06Zm.71-2.23a107.84,107.84,0,0,1,6-14.57c-.21.41-.42.83-.62,1.24L57.41,92.91A79.48,79.48,0,0,0,52.79,104L25.26,92.64C25,93.37,24.76,94.1,24.52,94.83Zm27.19,55.86-29.23,5.82a111,111,0,0,1-3.26-21.33q.27,4.8.93,9.5l29.23-5.81A79.47,79.47,0,0,0,51.71,150.69Zm1.08,3.56a79.48,79.48,0,0,0,4.62,11.13L29.87,176.79a111,111,0,0,1-4.61-11.14Zm-27.53,11.4c-.25-.73-.5-1.46-.74-2.19C24.76,164.19,25,164.92,25.26,165.65Zm-.8-2.36c-.22-.68-.44-1.37-.65-2.06C24,161.92,24.24,162.61,24.46,163.29Zm-.79-2.55c-.19-.61-.36-1.21-.54-1.82C23.31,159.53,23.48,160.13,23.67,160.74ZM22.89,158c-.14-.5-.28-1-.41-1.51C22.61,157,22.75,157.52,22.89,158Zm36.27,10.64a80.65,80.65,0,0,0,6.71,10L41.09,195.23a111.29,111.29,0,0,1-6.7-10ZM34.39,185.21c-.4-.68-.79-1.36-1.18-2C33.6,183.85,34,184.53,34.39,185.21Zm-1.23-2.13c-.36-.65-.73-1.3-1.08-2C32.43,181.78,32.79,182.43,33.16,183.08Zm-1.3-2.37c-.3-.56-.6-1.13-.89-1.7C31.26,179.58,31.56,180.15,31.86,180.71ZM30.48,178l-.61-1.23ZM59.16,89.63,34.39,73.08a111.29,111.29,0,0,1,6.7-10L65.87,79.61A80.65,80.65,0,0,0,59.16,89.63ZM31,79.28q.44-.86.9-1.71Q31.4,78.43,31,79.28Zm1.11-2.11c.35-.66.72-1.31,1.08-2C32.79,75.86,32.43,76.51,32.08,77.17Zm1.13-2c.39-.68.78-1.36,1.18-2C34,73.76,33.6,74.44,33.21,75.12ZM47.16,55.68Q44,59.24,41.09,63.06,44,59.24,47.16,55.68Zm-27,57.93q-.66,4.69-.93,9.5Q19.49,118.31,20.15,113.61Zm-.93,9.51H49c-.14,2-.22,4-.22,6s.08,4,.22,6H19.22q-.16-3-.16-6T19.22,123.12Zm21.87,72.11q2.88,3.83,6.07,7.38Q44,199.06,41.09,195.23Zm6.07,7.38,21.06-21.07a81.78,81.78,0,0,0,8.53,8.53L55.68,211.13A110.47,110.47,0,0,1,47.16,202.61Zm15.9,14.59q-3.83-2.88-7.37-6.07Q59.23,214.33,63.06,217.2Zm60.06,21.87V209.28q3,.22,6,.22t6-.22v29.79q-3,.17-6,.16T123.12,239.07Zm72.11-21.87q3.83-2.88,7.38-6.07Q199.06,214.33,195.23,217.2Zm7.38-6.07-21.07-21.06a81.78,81.78,0,0,0,8.53-8.53l21.06,21.07A110.47,110.47,0,0,1,202.61,211.13Zm8.52-8.53q3.19-3.54,6.07-7.37Q214.32,199.06,211.13,202.6Z"/><path class="cls-3" d="M129.15,8.61A120.54,120.54,0,1,0,249.68,129.15,120.54,120.54,0,0,0,129.15,8.61Zm0,230.31A109.78,109.78,0,1,1,238.92,129.15,109.78,109.78,0,0,1,129.15,238.92Z"/></g></g></g></svg>