<svg xmlns="http://www.w3.org/2000/svg" xmlns:xlink="http://www.w3.org/1999/xlink" viewBox="0 0 102.28 37"><defs><style>.cls-1{fill:url(#Безымянный_градиент_4);}.cls-2,.cls-4,.cls-5{fill:#f6a45a;}.cls-3{opacity:0.15;fill:url(#Безымянный_градиент_6);}.cls-4{font-size:16px;font-family:SegoeUIVariable_672.000wght_36.000opsz, Segoe UI Variable;letter-spacing:0.07em;}.cls-5{font-size:7px;font-family:SegoeUIVariable-RegularDisplay, Segoe UI Variable;letter-spacing:0.07em;}</style><linearGradient id="Безымянный_градиент_4" x1="26.55" y1="3.39" x2="8.39" y2="37.42" gradientUnits="userSpaceOnUse"><stop offset="0" stop-color="#f9b175"/><stop offset="0.02" stop-color="#f9b073"/><stop offset="0.24" stop-color="#f7a965"/><stop offset="0.49" stop-color="#f6a55c"/><stop offset="0.94" stop-color="#f6a45a"/></linearGradient><linearGradient id="Безымянный_градиент_6" x1="26.56" y1="3.39" x2="8.4" y2="37.42" gradientUnits="userSpaceOnUse"><stop offset="0" stop-color="lime"/><stop offset="0" stop-color="#01ff00"/><stop offset="0.27" stop-color="#57df20"/><stop offset="0.51" stop-color="#9bc639"/><stop offset="0.7" stop-color="#ccb34b"/><stop offset="0.85" stop-color="#eba856"/><stop offset="0.94" stop-color="#f6a45a"/></linearGradient></defs><g id="Слой_2" data-name="Слой 2"><g id="Слой_1-2" data-name="Слой 1"><path class="cls-1" d="M18.49,0A18.51,18.51,0,0,0,0,17.52l9.8,4.28a4.88,4.88,0,0,1,2.51-.7l.49,0,4.38-6.81v0a6.82,6.82,0,1,1,7.17,6.8l-7.18,4.78s0,.07,0,.1a4.87,4.87,0,0,1-9.64,1L.81,24A18.5,18.5,0,1,0,18.49,0Z"/><path class="cls-2" d="M11.21,28.52l-2.05-.9a3.57,3.57,0,1,0,3.16-5.23,3.66,3.66,0,0,0-.88.12l2.19.95A2.7,2.7,0,0,1,15,27,2.9,2.9,0,0,1,11.21,28.52Z"/><path class="cls-2" d="M28.55,14.28A4.55,4.55,0,1,0,24,18.82,4.55,4.55,0,0,0,28.55,14.28Zm-7.79,0A3.25,3.25,0,1,1,24,17.53,3.24,3.24,0,0,1,20.76,14.28Z"/><circle class="cls-3" cx="18.5" cy="18.5" r="18.5"/><text class="cls-4" transform="translate(44.08 27.32)">STEAM</text><text class="cls-5" transform="translate(51.63 12.71)">ВОЙТИ ЧЕРЕЗ</text></g></g></svg>